# xmcd
#
# Track frame offsets:
#	150
#	15053
#	30334
#	45643
#	61433
#	76405
#	94581
#	110352
#	125220
#	144100
#	162059
#	176576
#	191755
#	204812
#	223405
#	237547
#	255072
#	271581
#
# Disc length: 3827 seconds
#
# Revision: 1
# Processed by: cddbd v1.5.2PL0 Copyright (c) Steve Scherf et al.
# Submitted via: audiograbber 1.83.01
#
DISCID=e30ef112
DTITLE=Various Artist - CDX 596
DYEAR=2014
DGENRE=Country
TTITLE0=JT Hodges - Already High
TTITLE1=Lady Antebellum - Bartender
TTITLE2=Jerrod Niemann - Donkey (Radio Edit)
TTITLE3=Jana Kramer - Love
TTITLE4=Sheryl Crow - Shotgun
TTITLE5=Keith Urban - Somewhere In My Car
TTITLE6=Mary K Shanahan - Americas Wings
TTITLE7=Chantal Dominique - Beautiful Maybe
TTITLE8=Veronica Ballestrini - Cookies and Cream
TTITLE9=Veronica Ballestrini - Cookies and Cream (Radio Edit)
TTITLE10=Re Mattei - Country Love
TTITLE11=Livewire - Drivin' You Outta My Mind
TTITLE12=Jay Jolley - High and Mighty
TTITLE13=Carl Parker - If I Didn't Have You Dad
TTITLE14=Tyler Barham - More Than A Cotton Dress
TTITLE15=Sherry Kennedy - The Legend Of Rainbow Powers
TTITLE16=Jody Lynn - The Worlds Out Dancin'
TTITLE17=Sarah Dunn - You or the Whiskey
EXTD=
EXTT0=
EXTT1=
EXTT2=
EXTT3=
EXTT4=
EXTT5=
EXTT6=
EXTT7=
EXTT8=
EXTT9=
EXTT10=
EXTT11=
EXTT12=
EXTT13=
EXTT14=
EXTT15=
EXTT16=
EXTT17=
PLAYORDER=
